    <svg class="rotate" width="143" height="150" viewBox="0 0 73 77" fill="none" xmlns="http://www.w3.org/2000/svg">
        <g filter="url(#filter0_df)">
            <path
                d="M37.7797 63.0709L36.7471 63.1402C36.7653 62.4836 36.6737 62.0269 36.4722 61.7702C36.2708 61.5134 35.9772 61.3716 35.5914 61.3448C35.3069 61.325 35.057 61.3723 34.8415 61.4865C34.6258 61.6047 34.4712 61.7721 34.3778 61.9888C34.2842 62.2094 34.2203 62.5652 34.1862 63.0562L33.776 68.9599L32.642 68.8811L33.0477 63.0417C33.0976 62.3247 33.2238 61.7755 33.4265 61.3941C33.6253 61.0124 33.9209 60.7314 34.3133 60.5512C34.7017 60.3706 35.1492 60.298 35.6558 60.3332C36.4079 60.3854 36.9696 60.6418 37.3409 61.1022C37.7084 61.5624 37.8546 62.2186 37.7797 63.0709Z"
                fill="#FCBE11" />
            <path
                d="M22.5537 58.2918L21.6726 57.6363C22.1366 57.1676 22.6575 56.8952 23.2353 56.8191C23.8131 56.743 24.4162 56.8834 25.0446 57.2403C25.836 57.6899 26.3264 58.2897 26.5158 59.0397C26.6999 59.7912 26.5421 60.6068 26.0424 61.4865C25.5253 62.3967 24.8896 62.9701 24.1353 63.2065C23.3811 63.443 22.6303 63.3489 21.8831 62.9245C21.1596 62.5135 20.7085 61.9316 20.5298 61.1786C20.351 60.4256 20.5153 59.6025 21.0227 58.7092C21.0536 58.6549 21.1016 58.5743 21.1668 58.4676L25.2018 60.7597C25.5055 60.146 25.5959 59.5954 25.473 59.1078C25.3502 58.6202 25.0629 58.2481 24.6111 57.9915C24.2749 57.8005 23.9377 57.7257 23.5996 57.7673C23.2616 57.8089 22.9129 57.9837 22.5537 58.2918ZM24.7225 61.4848L21.7013 59.7686C21.4836 60.2469 21.4051 60.6538 21.4661 60.9894C21.5575 61.5086 21.8359 61.9003 22.3012 62.1647C22.7224 62.4039 23.1574 62.4646 23.6062 62.3467C24.0517 62.2268 24.4238 61.9395 24.7225 61.4848Z"
                fill="#FCBE11" />
            <path
                d="M16.8396 53.2031L16.1099 52.44C16.4198 52.1535 16.5905 51.8376 16.6218 51.4924C16.651 51.1441 16.5285 50.7725 16.2545 50.3779C15.9782 49.98 15.693 49.7406 15.3989 49.6595C15.1016 49.5806 14.8438 49.6169 14.6256 49.7684C14.4299 49.9043 14.335 50.0963 14.3407 50.3443C14.3462 50.5165 14.4533 50.8797 14.6621 51.4337C14.9429 52.1804 15.1113 52.7174 15.1673 53.0447C15.2179 53.3709 15.1851 53.6696 15.0689 53.9405C14.9473 54.2105 14.7613 54.4323 14.511 54.6061C14.2832 54.7643 14.0374 54.8589 13.7736 54.8899C13.5044 54.92 13.2432 54.8897 12.9901 54.7992C12.797 54.7335 12.5866 54.6085 12.3588 54.4243C12.1256 54.2391 11.9165 54.0133 11.7316 53.747C11.4531 53.346 11.2668 52.9545 11.1729 52.5727C11.0767 52.1877 11.078 51.8539 11.1766 51.5714C11.2721 51.2911 11.4661 51.009 11.7587 50.7249L12.4624 51.4917C12.2261 51.7129 12.0987 51.9678 12.0804 52.2564C12.0598 52.5418 12.1665 52.8529 12.4004 53.1898C12.6767 53.5877 12.9396 53.826 13.1893 53.9047C13.4389 53.9834 13.652 53.9614 13.8284 53.8389C13.9407 53.7609 14.0173 53.6554 14.0581 53.5225C14.1021 53.3873 14.1023 53.2231 14.0585 53.03C14.0304 52.921 13.9271 52.6147 13.7485 52.111C13.4866 51.3845 13.325 50.8642 13.2638 50.5501C13.1971 50.2349 13.2153 49.9393 13.3184 49.6632C13.4216 49.3871 13.6207 49.1465 13.9159 48.9415C14.2047 48.741 14.5364 48.6367 14.9112 48.6285C15.2805 48.6193 15.6461 48.7245 16.0078 48.9441C16.3664 49.1659 16.6849 49.4774 16.9634 49.8784C17.4246 50.5426 17.6387 51.1453 17.6056 51.6867C17.5703 52.2248 17.315 52.7303 16.8396 53.2031Z"
                fill="#FCBE11" />
            <path
                d="M11.5196 43.2894L11.1722 42.2924C11.573 42.1602 11.8593 41.9436 12.0311 41.6425C12.2021 41.3376 12.2448 40.9488 12.1592 40.476C12.0729 39.9994 11.9127 39.6632 11.6787 39.4674C11.4409 39.2723 11.1913 39.1984 10.93 39.2457C10.6955 39.2882 10.5295 39.4235 10.4318 39.6516C10.3654 39.8105 10.3122 40.1854 10.2723 40.7761C10.218 41.572 10.1484 42.1304 10.0637 42.4515C9.97439 42.7694 9.82067 43.0275 9.60252 43.2258C9.37983 43.4209 9.11859 43.5457 8.81878 43.6C8.54588 43.6494 8.28297 43.6335 8.03007 43.5523C7.77263 43.4679 7.54754 43.332 7.3548 43.1446C7.2064 43.0048 7.06678 42.8038 6.93593 42.5417C6.80054 42.2764 6.70395 41.9843 6.64616 41.6652C6.55912 41.1848 6.55207 40.7514 6.62499 40.365C6.69722 39.9748 6.83682 39.6716 7.0438 39.4555C7.24693 39.24 7.54053 39.0638 7.92459 38.9267L8.24678 39.9164C7.93996 40.0196 7.71833 40.1987 7.5819 40.4537C7.44478 40.7048 7.41277 41.0321 7.48588 41.4357C7.57222 41.9123 7.71264 42.2382 7.90713 42.4134C8.10162 42.5886 8.30457 42.657 8.51598 42.6187C8.65051 42.5943 8.76392 42.5301 8.85623 42.4261C8.95238 42.3213 9.0206 42.172 9.06091 41.9781C9.08055 41.8674 9.1136 41.5458 9.16006 41.0133C9.2231 40.2437 9.29193 39.7032 9.36656 39.392C9.43664 39.0776 9.57586 38.8162 9.78423 38.6077C9.9926 38.3993 10.2736 38.263 10.6272 38.1989C10.9731 38.1363 11.3183 38.179 11.6627 38.327C12.0026 38.4718 12.2915 38.7192 12.5296 39.0691C12.7638 39.4197 12.9244 39.8352 13.0114 40.3157C13.1556 41.1113 13.1003 41.7486 12.8456 42.2274C12.5903 42.7024 12.1483 43.0564 11.5196 43.2894Z"
                fill="#FCBE11" />
            <path
                d="M5.55116 30.66L4.36015 30.4306L4.55958 29.3949L5.75059 29.6243L5.55116 30.66ZM12.795 32.0549L6.68463 30.8782L6.88407 29.8426L12.9945 31.0192L12.795 32.0549Z"
                fill="#FCBE11" />
            <path
                d="M15.2776 20.2057L15.9424 19.3984C16.488 19.8739 16.8085 20.4181 16.9039 21.031C16.9981 21.6386 16.8647 22.2303 16.5039 22.8063C16.0518 23.5279 15.4528 23.9616 14.7069 24.1074C13.9598 24.2478 13.1459 24.0422 12.2654 23.4905C11.6961 23.1338 11.257 22.7273 10.9482 22.2711C10.6393 21.8149 10.4993 21.3284 10.528 20.8117C10.5555 20.2896 10.7113 19.8018 10.9954 19.3483C11.3542 18.7756 11.7933 18.3985 12.3128 18.2169C12.8289 18.0332 13.3856 18.057 13.9828 18.2882L13.5725 19.2412C13.1664 19.102 12.8077 19.0824 12.4962 19.1822C12.1868 19.2788 11.9387 19.476 11.7521 19.7739C11.47 20.2241 11.4031 20.6915 11.5512 21.1762C11.696 21.6587 12.1176 22.1188 12.8161 22.5564C13.5245 23.0002 14.1243 23.1869 14.6154 23.1167C15.1066 23.0464 15.489 22.7928 15.7628 22.3558C15.9826 22.005 16.0586 21.6446 15.9906 21.2748C15.9227 20.9049 15.685 20.5486 15.2776 20.2057Z"
                fill="#FCBE11" />
            <path
                d="M24.6297 13.9098C24.4771 14.3992 24.2837 14.7988 24.0498 15.1085C23.8191 15.4161 23.5288 15.6806 23.1788 15.9019C22.6011 16.2673 22.0683 16.4078 21.5805 16.3234C21.0906 16.2357 20.7068 15.9723 20.4291 15.5332C20.2663 15.2757 20.1758 15.0048 20.1578 14.7204C20.1409 14.4307 20.1859 14.1619 20.2926 13.9141C20.4027 13.6643 20.5557 13.4312 20.7516 13.2148C20.8974 13.0579 21.1333 12.8464 21.4594 12.58C22.1249 12.0391 22.59 11.6016 22.8549 11.2677C22.781 11.1435 22.7336 11.0649 22.7127 11.0318C22.483 10.6687 22.2371 10.466 21.9747 10.424C21.6196 10.3666 21.2175 10.4799 20.7685 10.7639C20.3492 11.029 20.0858 11.2996 19.9784 11.5755C19.8722 11.846 19.8891 12.1981 20.0293 12.6317L19.0826 13.064C18.9259 12.6409 18.8663 12.2579 18.9038 11.9153C18.9393 11.5694 19.09 11.2268 19.3561 10.8875C19.6202 10.5449 19.9783 10.2306 20.4306 9.94456C20.8796 9.66062 21.2778 9.48274 21.6253 9.41093C21.9727 9.33911 22.2636 9.34233 22.498 9.4206C22.7303 9.49556 22.95 9.63849 23.1574 9.84939C23.2831 9.98247 23.4713 10.2471 23.7218 10.6433L24.4734 11.8318C24.9974 12.6605 25.3476 13.174 25.5238 13.3722C25.7012 13.565 25.9097 13.7267 26.1493 13.8571L25.2183 14.4458C25.0089 14.3194 24.8127 14.1407 24.6297 13.9098ZM23.2965 11.966C23.0565 12.3027 22.6421 12.7218 22.0535 13.2235C21.7204 13.508 21.4989 13.7314 21.3887 13.8934C21.2786 14.0555 21.223 14.227 21.2219 14.408C21.2187 14.5856 21.2662 14.752 21.3643 14.9072C21.5146 15.1449 21.729 15.2866 22.0075 15.3323C22.2893 15.376 22.6035 15.2882 22.9502 15.069C23.2936 14.8519 23.552 14.5844 23.7254 14.2668C23.8968 13.9458 23.9628 13.6152 23.9233 13.2751C23.8917 13.0131 23.7517 12.6857 23.5032 12.2928L23.2965 11.966Z"
                fill="#FCBE11" />
            <path
                d="M42.7353 12.1495L44.7723 4.85231L42.0464 4.09138L42.319 3.11503L48.8768 4.94568L48.6043 5.92202L45.8671 5.15794L43.8301 12.4551L42.7353 12.1495Z"
                fill="#FCBE11" />
            <path
                d="M51.8589 16.464L55.8676 11.7047L56.5937 12.3162L55.9859 13.0377C56.4555 12.8561 56.8133 12.777 57.0592 12.8003C57.3082 12.8261 57.5268 12.9183 57.715 13.0768C57.9869 13.3058 58.1902 13.6252 58.3251 14.0351L57.4169 14.5494C57.3179 14.2668 57.1697 14.0425 56.9726 13.8764C56.7963 13.7279 56.5926 13.6483 56.3616 13.6376C56.1331 13.6239 55.9097 13.686 55.6914 13.8239C55.3602 14.0352 55.0512 14.3112 54.7643 14.6518L52.6656 17.1435L51.8589 16.464Z"
                fill="#FCBE11" />
            <path
                d="M59.5501 26.2882L60.3681 25.8804C59.5227 25.7606 58.9144 25.3284 58.5432 24.5837C58.3794 24.2551 58.289 23.9161 58.2719 23.5667C58.2566 23.2208 58.3085 22.9309 58.4275 22.6969C58.5519 22.4647 58.7382 22.2518 58.9864 22.0582C59.1526 21.9274 59.4366 21.7618 59.8387 21.5613L63.2891 19.8412L63.7597 20.7851L60.671 22.3249C60.1781 22.5706 59.8556 22.7554 59.7035 22.8792C59.4849 23.0624 59.3519 23.2858 59.3044 23.5496C59.2604 23.8116 59.309 24.0841 59.4501 24.3673C59.5913 24.6505 59.7954 24.8804 60.0625 25.0572C60.3331 25.2322 60.6177 25.3085 60.9165 25.2862C61.2205 25.2656 61.6102 25.1368 62.0856 24.8998L65.0694 23.4123L65.54 24.3562L59.9709 27.1324L59.5501 26.2882Z"
                fill="#FCBE11" />
            <path
                d="M64.6384 33.0146C65.7907 33.0194 66.6429 33.3433 67.1949 33.9863C67.6536 34.5234 67.8813 35.1767 67.8781 35.9462C67.8745 36.8017 67.5903 37.4997 67.0255 38.0403C66.4646 38.5809 65.6901 38.8491 64.7018 38.845C63.901 38.8416 63.2707 38.7179 62.8108 38.4738C62.3547 38.2336 62.0007 37.8825 61.7488 37.4205C61.4968 36.9624 61.3719 36.4618 61.3742 35.9189C61.3779 35.0478 61.6601 34.3439 62.221 33.8072C62.7818 33.2744 63.5876 33.0102 64.6384 33.0146ZM64.6339 34.0986C63.837 34.0952 63.2386 34.2665 62.8387 34.6125C62.4427 34.9585 62.2436 35.3952 62.2414 35.9225C62.2392 36.4459 62.4366 36.8823 62.8336 37.2317C63.2305 37.581 63.8372 37.7574 64.6536 37.7608C65.4231 37.764 66.0059 37.5907 66.4019 37.2408C66.8018 36.8948 67.0028 36.4621 67.005 35.9425C67.0072 35.4152 66.8118 34.9769 66.4188 34.6276C66.0257 34.2782 65.4307 34.1019 64.6339 34.0986Z"
                fill="#FCBE11" />
            <path
                d="M60.0755 44.707L65.6209 47.53L65.1903 48.3759L64.4018 47.9745C64.8037 48.692 64.8088 49.4353 64.4172 50.2047C64.247 50.5389 64.0302 50.8142 63.7666 51.0307C63.5047 51.2524 63.2408 51.3832 62.975 51.4232C62.7091 51.4633 62.428 51.4429 62.1316 51.3621C61.9398 51.3083 61.6264 51.1707 61.1912 50.9492L57.7814 49.2134L58.2599 48.2735L61.6332 49.9906C62.0161 50.1856 62.3201 50.2943 62.5453 50.3169C62.774 50.3413 62.9919 50.2878 63.199 50.1566C63.4078 50.0305 63.576 49.8422 63.7036 49.5916C63.9074 49.1912 63.9566 48.7802 63.8514 48.3584C63.7443 47.9401 63.3357 47.5502 62.6256 47.1887L59.597 45.6469L60.0755 44.707Z"
                fill="#FCBE11" />
            <path
                d="M53.5414 53.6279L52.6247 54.1119C52.4028 53.8822 52.1704 53.767 51.9274 53.766C51.6009 53.7635 51.2549 53.8963 50.8897 54.1644C50.4961 54.4534 50.25 54.7551 50.1515 55.0698C50.0529 55.3844 50.0699 55.7112 50.2024 56.05C50.2854 56.2556 50.5319 56.6343 50.9419 57.1862C50.9922 56.4757 51.2944 55.9171 51.8486 55.5102C52.5382 55.004 53.2545 54.8609 53.9976 55.081C54.7407 55.3012 55.3677 55.7592 55.8786 56.4551C56.23 56.9337 56.467 57.4381 56.5897 57.9683C56.7147 58.5016 56.6944 58.9987 56.5287 59.4595C56.3599 59.9227 56.0535 60.3172 55.6095 60.6432C55.0175 61.0777 54.3538 61.1967 53.6183 61.0001L54.0621 61.6047L53.278 62.1803L50.0949 57.8443C49.5216 57.0634 49.1962 56.4519 49.1187 56.0096C49.0358 55.5666 49.0981 55.1234 49.3058 54.6802C49.5103 54.2393 49.8645 53.834 50.3683 53.4641C50.9666 53.0249 51.5493 52.8055 52.1166 52.8058C52.6815 52.803 53.1564 53.077 53.5414 53.6279ZM55.0499 57.1579C54.5667 56.4998 54.0835 56.1156 53.6003 56.0051C53.117 55.8947 52.6786 55.984 52.285 56.2729C51.8945 56.5596 51.6768 56.9496 51.6319 57.4429C51.5893 57.9393 51.8038 58.5088 52.2754 59.1511C52.7262 59.7651 53.203 60.1275 53.7058 60.2381C54.2054 60.351 54.6473 60.2665 55.0315 59.9845C55.4093 59.7071 55.6172 59.317 55.6552 58.8142C55.6955 58.3146 55.4937 57.7625 55.0499 57.1579Z"
                fill="#FCBE11" />
        </g>
        <defs>
            <filter id="filter0_df" x="0.360153" y="2.61503" width="71.518" height="74.3449"
                filterUnits="userSpaceOnUse" color-interpolation-filters="sRGB">
                <feFlood flood-opacity="0" result="BackgroundImageFix" />
                <feColorMatrix in="SourceAlpha" type="matrix" values="0 0 0 0 0 0 0 0 0 0 0 0 0 0 0 0 0 0 127 0" />
                <feOffset dy="4" />
                <feGaussianBlur stdDeviation="2" />
                <feColorMatrix type="matrix" values="0 0 0 0 0 0 0 0 0 0 0 0 0 0 0 0 0 0 0.25 0" />
                <feBlend mode="normal" in2="BackgroundImageFix" result="effect1_dropShadow" />
                <feBlend mode="normal" in="SourceGraphic" in2="effect1_dropShadow" result="shape" />
                <feGaussianBlur stdDeviation="0.25" result="effect2_foregroundBlur" />
            </filter>
        </defs>
    </svg>